<?xml version="1.0" encoding="UTF-8"?>
<svg id="Layer_1" data-name="Layer 1" xmlns="http://www.w3.org/2000/svg" xmlns:xlink="http://www.w3.org/1999/xlink" viewBox="0 0 1024 1024">
  <defs>
    <style>
      .cls-1 {
        fill: #fff;
        filter: url(#drop-shadow-1);
      }

      .cls-2 {
        font-family: Arial-BoldMT, Arial;
        font-size: 100px;
      }
    </style>
    <filter id="drop-shadow-1" filterUnits="userSpaceOnUse">
      <feOffset dx="7" dy="7"/>
      <feGaussianBlur result="blur" stdDeviation="8"/>
      <feFlood flood-color="#000" flood-opacity=".5"/>
      <feComposite in2="blur" operator="in"/>
      <feComposite in="SourceGraphic"/>
    </filter>
  </defs>
  <path class="cls-1" d="M100.7,583.47v-187.68c-5.52-29.48,4.92-58.1,27.82-73.85,15.14-10.42,31.56-12.35,40.28-12.71,189.97,.88,379.95,1.75,569.92,2.63,11.76-.43,47.88-.33,79.73,22.9,9.97,7.27,17.67,16.17,17.71,16.21h0c5.48,8.22,10.57,21.76,15.2,41.16,.66,11.9,1.32,23.81,1.98,35.71,23.81,16.78,47.62,33.57,71.43,50.35-26.02,15.77-52.05,31.54-78.07,47.3-.69,19.82-1.37,39.65-2.06,59.47,.56,8.56,.57,28.91-13.09,45.15-10.51,12.49-23.97,16.42-41.87,21.65-11.34,3.31-28.19,6.88-49.3,6.48-188.79-1.21-377.58-2.41-566.37-3.62-6.82,.16-27.03-.18-45.49-13.15-29.37-20.63-28.01-54.75-27.82-58Z"/>
  <text class="cls-2" transform="translate(153.88 512)"><tspan x="0" y="0">Unappreciate</tspan></text>
</svg>